<svg width="1440" height="131" viewBox="0 0 1440 131" fill="none" xmlns="http://www.w3.org/2000/svg">
<path d="M-17 104.847L34.4 91.7707C85.8 78.6942 188.6 52.5413 291.4 30.72C394.2 9.22557 497 -8.75455 599.8 4.56709C702.6 17.3984 805.4 61.5314 908.2 74.3626C1011 87.6843 1113.8 69.7041 1216.6 74.3626C1319.4 78.6942 1422.2 104.847 1473.6 117.924L1525 131L1473.6 131C1422.2 131 1319.4 131 1216.6 131C1113.8 131 1011 131 908.2 131C805.4 131 702.6 131 599.8 131C497 131 394.2 131 291.4 131C188.6 131 85.8 131 34.4 131H-17L-17 104.847Z" fill="#293241"/>
</svg>
