<svg width="29" height="28" viewBox="0 0 29 28" fill="none" xmlns="http://www.w3.org/2000/svg">
<path d="M8.45597 0C3.79302 0 0 3.66561 0 8.16895V19.8356C0 24.3378 3.79653 28 8.46069 28H20.544C25.207 28 29 24.3344 29 19.8311V8.16439C29 3.66222 25.2035 0 20.5393 0H8.45597ZM22.9583 4.66667C23.6253 4.66667 24.1667 5.18933 24.1667 5.83333C24.1667 6.47733 23.6253 7 22.9583 7C22.2913 7 21.75 6.47733 21.75 5.83333C21.75 5.18933 22.2913 4.66667 22.9583 4.66667ZM14.5 7C18.4984 7 21.75 10.1395 21.75 14C21.75 17.8605 18.4984 21 14.5 21C10.5016 21 7.25 17.8605 7.25 14C7.25 10.1395 10.5016 7 14.5 7ZM14.5 9.33333C13.2181 9.33333 11.9887 9.825 11.0823 10.7002C10.1759 11.5753 9.66667 12.7623 9.66667 14C9.66667 15.2377 10.1759 16.4247 11.0823 17.2998C11.9887 18.175 13.2181 18.6667 14.5 18.6667C15.7819 18.6667 17.0113 18.175 17.9177 17.2998C18.8241 16.4247 19.3333 15.2377 19.3333 14C19.3333 12.7623 18.8241 11.5753 17.9177 10.7002C17.0113 9.825 15.7819 9.33333 14.5 9.33333Z" fill="white"/>
</svg>
