<svg width="89" height="18" viewBox="0 0 89 18" fill="none" xmlns="http://www.w3.org/2000/svg">
<path d="M63.6869 18C63.6149 18 63.5429 17.9622 63.4708 17.9244C63.3628 17.8487 63.2907 17.6597 63.3267 17.5084L64.9116 11.3067L60.1571 7.2605C60.013 7.18487 59.977 6.9958 60.013 6.84454C60.049 6.69328 60.1931 6.57983 60.3372 6.57983L66.4604 6.2395L68.6576 0.226891C68.7296 0.113445 68.8737 0 69.0178 0C69.1618 0 69.3059 0.113445 69.3419 0.226891L71.5391 6.2395L77.6623 6.57983C77.8064 6.57983 77.9505 6.69328 77.9865 6.84454C78.0225 6.9958 77.9865 7.14706 77.8784 7.2605L73.1239 11.3067L74.7088 17.5084C74.7448 17.6597 74.7088 17.8109 74.5647 17.9244C74.4566 18 74.2765 18.0378 74.1685 17.9244L69.0178 14.4454L63.867 17.9244C63.795 18 63.759 18 63.6869 18Z" fill="#FCD342"/>
<path d="M3.68693 18C3.6149 18 3.54286 17.9622 3.47082 17.9244C3.36276 17.8487 3.29072 17.6597 3.32674 17.5084L4.91158 11.3067L0.157068 7.2605C0.0129913 7.18487 -0.0230277 6.9958 0.0129913 6.84454C0.0490104 6.69328 0.193087 6.57983 0.337163 6.57983L6.4604 6.2395L8.65756 0.226891C8.7296 0.113445 8.87368 0 9.01775 0C9.16183 0 9.3059 0.113445 9.34192 0.226891L11.5391 6.2395L17.6623 6.57983C17.8064 6.57983 17.9505 6.69328 17.9865 6.84454C18.0225 6.9958 17.9865 7.14706 17.8784 7.2605L13.1239 11.3067L14.7088 17.5084C14.7448 17.6597 14.7088 17.8109 14.5647 17.9244C14.4566 18 14.2765 18.0378 14.1685 17.9244L9.01775 14.4454L3.86703 17.9244C3.79499 18 3.75897 18 3.68693 18Z" fill="#FCD342"/>
<path d="M23.6869 18C23.6149 18 23.5429 17.9622 23.4708 17.9244C23.3628 17.8487 23.2907 17.6597 23.3267 17.5084L24.9116 11.3067L20.1571 7.2605C20.013 7.18487 19.977 6.9958 20.013 6.84454C20.049 6.69328 20.1931 6.57983 20.3372 6.57983L26.4604 6.2395L28.6576 0.226891C28.7296 0.113445 28.8737 0 29.0178 0C29.1618 0 29.3059 0.113445 29.3419 0.226891L31.5391 6.2395L37.6623 6.57983C37.8064 6.57983 37.9505 6.69328 37.9865 6.84454C38.0225 6.9958 37.9865 7.14706 37.8784 7.2605L33.1239 11.3067L34.7088 17.5084C34.7448 17.6597 34.7088 17.8109 34.5647 17.9244C34.4566 18 34.2765 18.0378 34.1685 17.9244L29.0178 14.4454L23.867 17.9244C23.795 18 23.759 18 23.6869 18Z" fill="#FCD342"/>
<path d="M43.6869 18C43.6149 18 43.5429 17.9622 43.4708 17.9244C43.3628 17.8487 43.2907 17.6597 43.3267 17.5084L44.9116 11.3067L40.1571 7.2605C40.013 7.18487 39.977 6.9958 40.013 6.84454C40.049 6.69328 40.1931 6.57983 40.3372 6.57983L46.4604 6.2395L48.6576 0.226891C48.7296 0.113445 48.8737 0 49.0178 0C49.1618 0 49.3059 0.113445 49.3419 0.226891L51.5391 6.2395L57.6623 6.57983C57.8064 6.57983 57.9505 6.69328 57.9865 6.84454C58.0225 6.9958 57.9865 7.14706 57.8784 7.2605L53.1239 11.3067L54.7088 17.5084C54.7448 17.6597 54.7088 17.8109 54.5647 17.9244C54.4566 18 54.2765 18.0378 54.1685 17.9244L49.0178 14.4454L43.867 17.9244C43.795 18 43.759 18 43.6869 18Z" fill="#FCD342"/>
<path d="M83.5383 18C83.4692 18 83.4001 17.9622 83.3309 17.9244C83.2272 17.8488 83.1581 17.6598 83.1927 17.5086L84.7136 11.3472L80.1507 7.26488C80.0125 7.15148 79.9779 7.00028 80.0125 6.84908C80.047 6.69788 80.1853 6.58448 80.3236 6.58448L86.2 6.24428L88.3432 0.234125C88.4124 0.0829256 88.5506 -0.0304736 88.7235 0.00732615C88.8963 0.0451259 89 0.196325 89 0.385324V14.031C89 14.1444 88.9309 14.2956 88.8272 14.3334L83.7112 17.9244C83.6766 17.9622 83.6075 18 83.5383 18Z" fill="#FCD342"/>
</svg>
