<svg width="31" height="25" viewBox="0 0 31 25" fill="none" xmlns="http://www.w3.org/2000/svg">
<path d="M31 2.9592C29.859 3.46207 28.6334 3.80046 27.3469 3.9531C28.6608 3.17218 29.6682 1.93573 30.1428 0.461451C28.9147 1.18439 27.5532 1.70974 26.1034 1.99371C24.9433 0.766719 23.2908 0 21.4619 0C17.9495 0 15.1024 2.82668 15.1024 6.31123C15.1024 6.80581 15.1596 7.28856 15.2669 7.74883C9.98162 7.48616 5.29603 4.97302 2.15799 1.15363C1.61194 2.086 1.29837 3.16981 1.29837 4.32817C1.29837 6.51711 2.42029 8.44929 4.12642 9.58043C3.08438 9.5473 2.10315 9.26334 1.24591 8.79123C1.24591 8.81845 1.24591 8.8433 1.24591 8.87051C1.24591 11.9291 3.43729 14.4801 6.3476 15.0587C5.81466 15.203 5.25191 15.2799 4.67128 15.2799C4.26234 15.2799 3.86293 15.2397 3.47544 15.1675C4.28499 17.6748 6.63374 19.5004 9.41648 19.5513C7.24061 21.2445 4.4984 22.2538 1.51775 22.2538C1.00508 22.2538 0.498365 22.2242 0 22.165C2.81493 23.9552 6.15684 25 9.74912 25C21.4476 25 27.8429 15.3829 27.8429 7.04245C27.8429 6.76913 27.8369 6.49699 27.825 6.22604C29.0685 5.33508 30.1475 4.22405 31 2.9592Z" fill="white"/>
</svg>
